<svg xmlns="http://www.w3.org/2000/svg" viewBox="0 0 823 358"><path d="m494.4 506.3-22 99.6h203.2c-6.6-.6-11.8-2.9-14.9-7a15 15 0 0 1-2.2-4.5c-.6-2-.9-4.4-.8-6.9.4-6.8 3.6-15 9.2-23.6a127.5 127.5 0 0 1 32.7-33.4c3.2-2.3 6.4-4.5 9.6-6.5a122.7 122.7 0 0 1 34.2-15.4c-10 3.3-21.3 8.8-32.4 16.4l-1.2.8a145 145 0 0 0-16.7 13.5c-15.7 14.7-24 30-20.2 39 .2.7.6 1.2 1 1.8 4 6 14 7 26.8 3.8a79.6 79.6 0 0 0 15.5-5.4 125.7 125.7 0 0 0 3.6-1.7c14-7 24.8-15 27.2-19.8.5-1 .6-2 .2-2.7-1.6-3.4-13.3-1-27.4 5l-3.5 1.6a109.5 109.5 0 0 1 16.3-12.4c12.9-9.7 19.4-18.9 18-22.3-.2-.6-.8-1-1.6-1.4-2.7-.8-7.6.2-13.6 2.7-4.9 2-10.5 5-16.2 8.7l-.8.5h-.2l-2.7 1.9 1.6-2.9c2.3-4.3 6.1-8.8 10.9-13a77.5 77.5 0 0 1 21.6-13.1c4.7-2 9.8-4.3 13.8-4.6l-11.7 1.3H494.4zm161.2.1c-.7 9.8 1.2 24.2 5.6 40.2a222.8 222.8 0 0 0 4.2 14l-1 1.5c-5.4 8.3-8.5 16.1-9.3 22.9a140.8 140.8 0 0 1-5.6-32.4c-1.1-18 1.2-34.3 6-46.2zM548 519.2h24.6c2 0 3.7.4 4.8 1.2 1.2.7 1.6 1.8 1.3 3l-2.9 13h-8.5l2.8-12.7h-21.4l-7.8 35-2.8 12.7h21.4v-.1l4.4-19.4h-10.1l1-4.4h18.6l-5.4 24.2c0 .4-.2.7-.3 1-.5.8-1.2 1.5-2.3 2-1.5.8-3.3 1.2-5.3 1.2h-24.3c-2 0-3.7-.4-4.8-1.2-1.2-.7-1.6-1.7-1.3-3l10.7-48.3c.3-1.2 1.1-2.3 2.6-3l.2-.1c1.3-.7 3-1 4.8-1.1zm38 0h30.6c2 0 3.6.4 4.8 1.2 1.1.7 1.6 1.8 1.3 3l-5.7 25.8c-.3 1.2-1.2 2.2-2.7 3-1.5.8-3.2 1.2-5.3 1.2h-22.2l-4.3 19.3-.7 3.2h-8.3l.6-2.9 12-53.8zm42.2 0h8.4l-9.5 42.8-2 9.4h20l.7 4.5h-30.1l2.4-10.7 10.1-46zm-34.8 4.5-5.6 25.1h20.9l5.5-25h-20.8zM548.9 583h.2c1 0 1.8.2 2.5.5a3 3 0 0 1 1.6 1.5c.3.7.3 1.4.2 2.2v.3h-2.5v-.2c0-.6 0-1-.2-1.4h-.1l-.2-.2a3 3 0 0 0-1.5-.4c-1 0-1.6.2-2 .5-.5.3-.8.7-.9 1 0 .5 0 .7.2.8.1.2.6.4 2 .8l2.7.8c.7.4 1.2.9 1.5 1.5.3.6.3 1.3.2 2a5.5 5.5 0 0 1-3.2 3.5 7 7 0 0 1-2.7.5c-1.2 0-2.1-.1-2.8-.5-.8-.4-1.4-1-1.7-1.7-.3-.7-.4-1.6-.2-2.5v-.3h2.4v.3l.1 1.3c.2.4.4.6.8.8.5.2 1 .3 1.7.3.6 0 1 0 1.6-.2.4-.2.8-.4 1-.7.3-.3.4-.5.5-.9v-.7c-.2-.2-.4-.4-.8-.5l-2-.6a9 9 0 0 1-2.3-.9c-.6-.3-1-.8-1.3-1.3a3 3 0 0 1-.1-1.8c.2-.7.5-1.3 1-2a5 5 0 0 1 2-1.3 7 7 0 0 1 2.3-.5zm21.5 0h.4l1.5.2h.5l-.7 2-.2.2-1.1-.1c-.3 0-.6 0-.7.2h-.2a2 2 0 0 0-.3.9v.3h1.7l-.4 2H569c0 .6-1.7 7.8-1.7 7.8H565l1.8-7.8h-1.4l.4-2h1.4l.2-.7a5 5 0 0 1 .4-1.4 3.1 3.1 0 0 1 2.6-1.5zm5.7.2-.8 3.5h1.6l-.5 2H575l-1.1 5-.1.6.3.1h1v2.1l-1.6.2c-.7 0-1.2-.1-1.5-.4-.4-.2-.6-.5-.6-1v-.2l.2-1.7 1-4.7h-1.1l.4-2h1.2l.4-2.1 2-1 .7-.4zm-75.6 0h9.2l-.5 2.4h-6.7c-.2.4-.6 2.3-.7 3h5.8l-.5 2.3h-5.8l-1.3 5.6h-2.5l3-13.2zm12.4 3.3h.2c.6 0 1.2.2 1.7.6l.3.2-1.2 2-.4-.2-.8-.2c-.3 0-.5 0-.7.2-.3.2-.5.4-.6.7l-.7 1.7-1 5h-2.4l2.2-9.8h2.2l-.1.4.3-.2c.3-.2.6-.4 1-.4zm7 0h.5c1.3 0 2.3.5 3 1.4.4.6.6 1.3.6 2.2 0 .5 0 1-.2 1.6l-.2.7H517v.4c0 .5.1 1 .4 1.2 0 .2.2.3.3.4.3.2.6.3 1 .3.5 0 1-.2 1.3-.4.4-.3.8-.7 1.1-1.2h2.6l-.3.5a5.4 5.4 0 0 1-5 3.1c-1.4 0-2.5-.4-3.2-1.4-.6-.9-.8-2.1-.4-3.7.3-1.6 1-2.9 2-3.8 1-.8 2-1.2 3.2-1.3zm10.7 0h.4c1.4 0 2.4.5 3 1.4.5.6.7 1.3.7 2.2 0 .5 0 1-.2 1.6l-.2.7h-6.7v.7c0 .4.2.7.3 1h.1c.3.4.8.6 1.3.6s1-.2 1.3-.4c.4-.3.8-.7 1.1-1.2h2.6l-.3.5a5.4 5.4 0 0 1-5 3.1c-1.4 0-2.5-.4-3.2-1.4-.4-.5-.6-1.3-.6-2.2v-.4c0-.4 0-.7.2-1 .3-1.7 1-3 2-3.9 1-.8 2-1.2 3.2-1.3zm29.1 0h.5c1.3 0 2.4.5 3 1.4.7.9 1 2.1.6 3.7a7.6 7.6 0 0 1-1.2 2.9 5.6 5.6 0 0 1-4.5 2.2c-1.4 0-2.5-.4-3.1-1.4-.5-.5-.7-1.3-.7-2.2 0-.5 0-1 .2-1.6a6.4 6.4 0 0 1 2.4-4c.9-.6 1.8-1 2.8-1zm36.1 0h.5c.8 0 1.5 0 2 .3.5.2.9.5 1 .9.3.3.4.7.4 1.2l-.2 1.5-.5 2-.5 2.7.1.9.2.5h-2.4l-.2-.3v-.5l-1.3.7c-.6.2-1.3.3-2 .3-1 0-1.9-.2-2.4-.8-.3-.4-.5-1-.5-1.5v-.7l.7-1.4c.3-.4.7-.8 1.1-1a5 5 0 0 1 1.4-.5l1.4-.3 2.6-.4v-1.1l-.1-.1c-.3-.2-.7-.3-1.3-.3-.6 0-1 .1-1.4.3-.3.2-.6.6-.9 1.1H591l.3-.5 1-1.7c.5-.4 1-.7 1.8-1 .5-.1 1-.3 1.7-.3zm10.4 0h.3c.6 0 1.1.2 1.7.6l.3.2-1.3 2-.3-.2-.8-.2c-.3 0-.5 0-.8.2l-.6.7c-.2.5-.5 1-.6 1.7l-1.1 5h-2.4l2.2-9.8h2.2v.4l.2-.2c.4-.2.7-.4 1-.4zm7 0h.5c1.3 0 2.3.5 3 1.4.4.6.6 1.3.6 2.2 0 .5 0 1-.2 1.6l-.1.7h-6.7v.4c0 .5 0 1 .3 1.2v.2h.2c.3.3.7.5 1.2.5.4 0 .9-.2 1.3-.4l1-1.2h2.6l-.2.5c-.5 1-1.2 1.8-2 2.3-1 .5-2 .8-3 .8-1.5 0-2.5-.4-3.2-1.4-.7-.9-.8-2.1-.5-3.7.4-1.6 1-2.9 2-3.8 1-.8 2-1.2 3.2-1.3zm-35.9.2h2.4a5691.7 5691.7 0 0 0 .5 5.5l2.7-5.5h2.3l.2 5.8 3-5.8h2.5l-5.4 9.8h-2.2l-.2-5.6-2.8 5.6h-2.2l-.8-9.8zm-57.3 1.9c-.6 0-1.1.2-1.6.6a3 3 0 0 0-.8 1.1h4v-.2c0-.4 0-.7-.2-.8-.3-.5-.7-.7-1.3-.7h-.1zm10.7 0c-.6 0-1.1.2-1.6.6-.4.3-.6.7-.8 1.1h4v-.2c0-.4 0-.7-.2-.8l-.2-.3c-.2-.3-.6-.4-1.1-.4h-.1zm82.7 0c-.6 0-1.2.2-1.7.6l-.8 1.1h4v-.2l-.1-.8c-.3-.5-.8-.7-1.4-.7zm-53.8 0c-.5 0-1 .3-1.5.7-.6.5-1 1.4-1.2 2.4l-.2 1.2c0 .5.1.8.3 1 0 .2.1.2.2.3.2.3.7.5 1.2.5.6 0 1.2-.3 1.8-.8.5-.5 1-1.3 1.2-2.4.2-1 .2-1.8-.1-2.2-.3-.5-.8-.7-1.4-.7h-.3zm37 3.6-2 .4a7 7 0 0 0-1.2.3c-.3 0-.4.2-.6.4l-.3.5v.5h.1v.1c.2.2.5.3 1 .3s1 0 1.5-.3c.5-.2.8-.6 1-1 .3-.2.4-.7.6-1.2zM486.3 575l13-57h7.6l-11.5 50.5H525l-1.5 6.5h-37.3" style="fill:#008033" transform="matrix(2.596 0 0 2.596 -1206.2 -1303.1)"/><path d="m657.1 595.6.9 2c.4 1 .9 1.8 1.5 2.6 3.2 4.4 8.6 6.8 15.4 7.4h7.3a91.8 91.8 0 0 0 32.2-9.6 157.6 157.6 0 0 0 39.7-27.3c6-5.7 10.4-11.6 13-16.7 2.6-5.3 3.1-9.8 1-12.7-1.4-1.7-3.6-2.7-6.5-2.9 13-9.7 20.4-21.4 17.7-28.8a8.6 8.6 0 0 0-5.4-5c-1.2-.5-2.6-.8-4-1h-4c-5.5.5-13.6 2.5-20.4 5.8" style="fill:none;stroke:#008033;stroke-width:3.28386545;stroke-linecap:butt;stroke-linejoin:miter;stroke-miterlimit:4" transform="matrix(2.596 0 0 2.596 -1206.2 -1303.1)"/><g style="fill:#008033"><path d="M0 357.6h12.8l5.7-23.8h20.7l2.6-10.3H21.1l3.4-15.3h22.1l2.7-12h-35L.2 357.7zM57.1 357.6l3.8-16c2-8.7 6.3-16.4 14.3-16.4.7 0 1.4.4 2 .5l3-12.3-2.3-.1c-6 0-10.9 4.2-14.2 10.1h-.3l1.2-8.4h-11c-.6 3.6-1.6 10.5-3 16.8l-6.3 25.8h12.8zM113.7 346.1c-3.5 1.8-7.6 1.3-12.2 1.3-3.7 0-6.6-.6-8.2-1.9a9.9 9.9 0 0 1-1-5c17.2.5 28.1-3.4 28.6-14.4.5-8.2-5.6-12.8-14.3-12.8-15.6 0-25.9 13.8-26.5 27-.6 11.6 5.4 17.3 17.8 17.3 4.7 0 11-.5 16.2-2l-.4-9.5zm-4.7-20c-.2 4.1-5.2 4.3-15 4.3 1-3.6 4.6-6.9 10.5-6.9 3 0 4.6 1.1 4.5 2.6zM158.9 346.1c-3.5 1.8-7.6 1.3-12.2 1.3-3.7 0-6.6-.6-8.2-1.9a10 10 0 0 1-1-5c17.2.5 28.1-3.4 28.7-14.4.4-8.2-5.6-12.8-14.4-12.8-15.6 0-25.9 13.8-26.5 27-.6 11.6 5.4 17.3 17.8 17.3 4.8 0 11-.5 16.2-2l-.4-9.5zm-4.7-20c-.2 4.1-5.2 4.3-15 4.3 1-3.6 4.6-6.9 10.5-6.9 3 0 4.6 1.1 4.5 2.6zM224.7 357.6c.1-5.4 1.4-13.9 2.8-19.4l5.4-23.2a48.9 48.9 0 0 0-14-1.7 31.1 31.1 0 0 0-32.5 30.4c-.5 9.2 4.5 14 12.3 14 5 0 10.7-2.5 15.1-9.8h.2l-1 9.7h11.7zm-8.7-24.3c-2.5 10.8-7.6 14.1-11.4 14.1-3.5 0-5-2.5-4.8-6.1.4-8.3 6.9-17.8 15.1-17.8 1.3 0 2.4-.2 3.3-.4l-2.2 10.2zM233 355.6c2.5 2 7.7 2 13 2 11.5.1 20.2-4.9 20.7-14.1.3-6.1-4.5-9.8-9.1-12.2-3.4-1.6-5-3.2-5-5 .1-2.4 2.4-2.8 5.8-2.8 3.8 0 6.8.5 8.5.8l3.5-9.2a24 24 0 0 0-11-1.8c-11 0-19.2 5.9-19.7 14.8-.3 5.5 3.7 9.3 8.5 11.8 4 2 5.2 3.5 5.1 5.7 0 2.2-2 1.8-5.6 1.8a80 80 0 0 1-11.1-1l-3.5 9.2zM301.1 357.6l10.3-42.6h-12.6l-10.4 42.6h12.7zm6-47.7c4.2 0 8.1-3.6 8.3-9.7.2-4.2-2.4-5.7-6.4-5.7-4.2 0-8 2.7-8.2 6.8-.2 4 2.5 8.6 6.2 8.6zM325.5 357.6l4.5-19.2c2.3-9.7 7.4-13.2 11.5-13.2 3.3 0 4.2 1.4 4 3.5 0 1.6-.3 3.3-.6 4.9l-5.7 24h12.7l6-25.2c.5-2.2 1-5.5 1-7.4.5-7.7-3.4-10.5-10.4-10.5-5.7 0-11.2 2.6-15.5 8.3h-.2l1.1-7.8h-11.2c-.7 3.7-1.6 8-3 13.2l-7 29.4h12.8zM380.2 357.6H393l5.8-23.8h20.6l2.7-10.3h-20.8l3.5-15.3h22l2.7-12h-34.9l-14.3 61.4zM437.3 357.6l3.8-16c2-8.7 6.3-16.4 14.3-16.4.7 0 1.4.4 2 .5l3-12.3-2.4-.1c-5.9 0-10.8 4.2-14.1 10.1h-.4c.5-2.9 1-5.6 1.3-8.4h-11c-.6 3.6-1.6 10.5-3 16.8l-6.3 25.8h12.8zM493.9 346.1c-3.6 1.8-7.6 1.3-12.3 1.3-3.7 0-6.6-.6-8.1-1.9a9.9 9.9 0 0 1-1.1-5c17.3.5 28.2-3.4 28.7-14.4.4-8.2-5.6-12.8-14.4-12.8-15.6 0-25.8 13.8-26.5 27-.5 11.6 5.5 17.3 17.8 17.3 4.8 0 11.1-.5 16.3-2l-.4-9.5zm-4.7-20c-.2 4.1-5.2 4.3-15.1 4.3 1-3.6 4.7-6.9 10.6-6.9 3 0 4.6 1.1 4.5 2.6zM539 346.1c-3.5 1.8-7.5 1.3-12.2 1.3-3.7 0-6.5-.6-8.1-1.9a10 10 0 0 1-1.1-5c17.3.5 28.2-3.4 28.7-14.4.4-8.2-5.6-12.8-14.3-12.8-15.7 0-25.9 13.8-26.6 27-.5 11.6 5.5 17.3 17.8 17.3 4.8 0 11.1-.5 16.3-2l-.4-9.5zm-4.6-20c-.2 4.1-5.2 4.3-15.1 4.3 1-3.6 4.7-6.9 10.6-6.9 3 0 4.6 1.1 4.5 2.6zM589.6 294.5l-4.8 19.4c-1.7-.7-4-.6-5.8-.6-16.3 0-27.9 14-28.6 29.1-.5 10.7 5.2 15.2 12.5 15.2 5.1 0 10.5-2.2 14.6-8h.2l-1 8h11.6a153 153 0 0 1 2.9-16.7l11-46.4h-12.6zm-10 41.7c-2 8.4-6.7 11.2-10.4 11.2s-5.7-2.6-5.5-7.2c.4-8.4 6.3-16.7 13.9-16.7 2.1 0 4 .4 5 .8l-3 11.9zM618.6 357.6a27 27 0 0 0 27-26.5c.6-10.1-5.7-17.8-17.4-17.8-15.4 0-26.4 12.5-27.2 27.5-.5 11 6.6 16.8 17.6 16.8zm2-10.2c-4.3 0-6.7-2.8-6.5-6.9.4-6.9 4.6-17 12-17 5 0 6.5 4 6.3 7.7-.3 7.5-4.9 16.2-11.8 16.2zM661.5 357.6l4.6-19.4c2-8.7 6.7-14.7 11-14.7 3.2 0 4 2.3 3.9 5.3-.1 1.5-.5 3.2-.8 5l-5.7 23.8h12.3l4.6-19.5c2-9 6.6-14.6 10.8-14.6 3 0 4.2 2.1 4 5 0 1.8-.4 3.7-.9 5.4l-5.5 23.7h12.4l6-25.2a64 64 0 0 0 1-7.6c.4-7.5-3.3-11.5-9.9-11.5-5.7 0-11.2 2.6-15.4 8-.1-4-2.9-8-9.8-8-5.5 0-10.9 2.5-15.1 8.2h-.2l1.1-6.5h-11c-.6 3.7-1.5 8-2.8 13.2l-6.9 29.4h12.3z"/></g></svg>